<mxfile host="Electron" agent="Mozilla/5.0 (X11; Linux x86_64) AppleWebKit/537.36 (KHTML, like Gecko) draw.io/28.1.2 Chrome/138.0.7204.243 Electron/37.4.0 Safari/537.36" version="28.1.2">
  <diagram name="Page-1" id="iyK7QSJKT3hRtGYVWWHk">
    <mxGraphModel dx="1321" dy="810" grid="1" gridSize="10" guides="1" tooltips="1" connect="1" arrows="1" fold="1" page="1" pageScale="1" pageWidth="850" pageHeight="1100" math="0" shadow="0">
      <root>
        <mxCell id="0" />
        <mxCell id="1" parent="0" />
        <mxCell id="96ZKBjVwSbG_w81MxDSZ-1" value="w0" style="ellipse;whiteSpace=wrap;html=1;" vertex="1" parent="1">
          <mxGeometry x="40" y="240" width="50" height="50" as="geometry" />
        </mxCell>
        <mxCell id="96ZKBjVwSbG_w81MxDSZ-2" value="x" style="ellipse;whiteSpace=wrap;html=1;fillColor=#f8cecc;strokeColor=#b85450;dashed=1;" vertex="1" parent="1">
          <mxGeometry x="200" y="240" width="50" height="50" as="geometry" />
        </mxCell>
        <mxCell id="96ZKBjVwSbG_w81MxDSZ-3" value="w1" style="ellipse;whiteSpace=wrap;html=1;fillColor=#f8cecc;strokeColor=#b85450;dashed=1;" vertex="1" parent="1">
          <mxGeometry x="290" y="240" width="50" height="50" as="geometry" />
        </mxCell>
        <mxCell id="96ZKBjVwSbG_w81MxDSZ-4" value="*" style="ellipse;whiteSpace=wrap;html=1;fillColor=#f8cecc;strokeColor=#b85450;dashed=1;" vertex="1" parent="1">
          <mxGeometry x="240" y="160" width="50" height="50" as="geometry" />
        </mxCell>
        <mxCell id="96ZKBjVwSbG_w81MxDSZ-5" value="" style="endArrow=none;html=1;rounded=0;exitX=0;exitY=1;exitDx=0;exitDy=0;entryX=0.5;entryY=0;entryDx=0;entryDy=0;endFill=0;dashed=1;" edge="1" parent="1" source="96ZKBjVwSbG_w81MxDSZ-4" target="96ZKBjVwSbG_w81MxDSZ-2">
          <mxGeometry width="50" height="50" relative="1" as="geometry">
            <mxPoint x="190" y="260" as="sourcePoint" />
            <mxPoint x="190" y="220" as="targetPoint" />
          </mxGeometry>
        </mxCell>
        <mxCell id="96ZKBjVwSbG_w81MxDSZ-6" value="" style="endArrow=none;html=1;rounded=0;entryX=1;entryY=1;entryDx=0;entryDy=0;exitX=0.5;exitY=0;exitDx=0;exitDy=0;dashed=1;" edge="1" parent="1" source="96ZKBjVwSbG_w81MxDSZ-3" target="96ZKBjVwSbG_w81MxDSZ-4">
          <mxGeometry width="50" height="50" relative="1" as="geometry">
            <mxPoint x="210" y="260" as="sourcePoint" />
            <mxPoint x="260" y="210" as="targetPoint" />
          </mxGeometry>
        </mxCell>
        <mxCell id="96ZKBjVwSbG_w81MxDSZ-7" value="+" style="ellipse;whiteSpace=wrap;html=1;" vertex="1" parent="1">
          <mxGeometry x="180" y="80" width="50" height="50" as="geometry" />
        </mxCell>
        <mxCell id="96ZKBjVwSbG_w81MxDSZ-8" style="rounded=0;orthogonalLoop=1;jettySize=auto;html=1;exitX=1;exitY=1;exitDx=0;exitDy=0;entryX=0.4;entryY=0;entryDx=0;entryDy=0;entryPerimeter=0;endArrow=none;endFill=0;" edge="1" parent="1" source="96ZKBjVwSbG_w81MxDSZ-7" target="96ZKBjVwSbG_w81MxDSZ-4">
          <mxGeometry relative="1" as="geometry" />
        </mxCell>
        <mxCell id="96ZKBjVwSbG_w81MxDSZ-9" value="/" style="ellipse;whiteSpace=wrap;html=1;" vertex="1" parent="1">
          <mxGeometry x="90" y="160" width="50" height="50" as="geometry" />
        </mxCell>
        <mxCell id="96ZKBjVwSbG_w81MxDSZ-10" value="" style="endArrow=none;html=1;rounded=0;exitX=0;exitY=1;exitDx=0;exitDy=0;entryX=1;entryY=0;entryDx=0;entryDy=0;endFill=0;" edge="1" parent="1" source="96ZKBjVwSbG_w81MxDSZ-7" target="96ZKBjVwSbG_w81MxDSZ-9">
          <mxGeometry width="50" height="50" relative="1" as="geometry">
            <mxPoint x="212" y="190" as="sourcePoint" />
            <mxPoint x="180" y="227" as="targetPoint" />
          </mxGeometry>
        </mxCell>
        <mxCell id="96ZKBjVwSbG_w81MxDSZ-11" value="x" style="ellipse;whiteSpace=wrap;html=1;" vertex="1" parent="1">
          <mxGeometry x="130" y="240" width="50" height="50" as="geometry" />
        </mxCell>
        <mxCell id="96ZKBjVwSbG_w81MxDSZ-12" value="" style="endArrow=none;html=1;rounded=0;exitX=0;exitY=1;exitDx=0;exitDy=0;entryX=0.5;entryY=0;entryDx=0;entryDy=0;endFill=0;" edge="1" parent="1" source="96ZKBjVwSbG_w81MxDSZ-9" target="96ZKBjVwSbG_w81MxDSZ-1">
          <mxGeometry width="50" height="50" relative="1" as="geometry">
            <mxPoint x="84" y="196" as="sourcePoint" />
            <mxPoint x="30" y="240" as="targetPoint" />
          </mxGeometry>
        </mxCell>
        <mxCell id="96ZKBjVwSbG_w81MxDSZ-13" value="" style="endArrow=none;html=1;rounded=0;exitX=1;exitY=1;exitDx=0;exitDy=0;entryX=0.5;entryY=0;entryDx=0;entryDy=0;endFill=0;" edge="1" parent="1" source="96ZKBjVwSbG_w81MxDSZ-9" target="96ZKBjVwSbG_w81MxDSZ-11">
          <mxGeometry width="50" height="50" relative="1" as="geometry">
            <mxPoint x="134" y="220" as="sourcePoint" />
            <mxPoint x="100" y="264" as="targetPoint" />
          </mxGeometry>
        </mxCell>
        <mxCell id="96ZKBjVwSbG_w81MxDSZ-14" value="" style="shape=flexArrow;endArrow=classic;html=1;rounded=0;" edge="1" parent="1">
          <mxGeometry width="50" height="50" relative="1" as="geometry">
            <mxPoint x="370" y="180" as="sourcePoint" />
            <mxPoint x="450" y="180" as="targetPoint" />
          </mxGeometry>
        </mxCell>
        <mxCell id="96ZKBjVwSbG_w81MxDSZ-15" value="w0" style="ellipse;whiteSpace=wrap;html=1;" vertex="1" parent="1">
          <mxGeometry x="480" y="240" width="50" height="50" as="geometry" />
        </mxCell>
        <mxCell id="96ZKBjVwSbG_w81MxDSZ-21" value="+" style="ellipse;whiteSpace=wrap;html=1;" vertex="1" parent="1">
          <mxGeometry x="620" y="80" width="50" height="50" as="geometry" />
        </mxCell>
        <mxCell id="96ZKBjVwSbG_w81MxDSZ-22" style="rounded=0;orthogonalLoop=1;jettySize=auto;html=1;exitX=1;exitY=1;exitDx=0;exitDy=0;entryX=0.4;entryY=0;entryDx=0;entryDy=0;entryPerimeter=0;endArrow=none;endFill=0;" edge="1" parent="1" source="96ZKBjVwSbG_w81MxDSZ-21">
          <mxGeometry relative="1" as="geometry">
            <mxPoint x="700" y="160" as="targetPoint" />
          </mxGeometry>
        </mxCell>
        <mxCell id="96ZKBjVwSbG_w81MxDSZ-23" value="/" style="ellipse;whiteSpace=wrap;html=1;" vertex="1" parent="1">
          <mxGeometry x="530" y="160" width="50" height="50" as="geometry" />
        </mxCell>
        <mxCell id="96ZKBjVwSbG_w81MxDSZ-24" value="" style="endArrow=none;html=1;rounded=0;exitX=0;exitY=1;exitDx=0;exitDy=0;entryX=1;entryY=0;entryDx=0;entryDy=0;endFill=0;" edge="1" parent="1" source="96ZKBjVwSbG_w81MxDSZ-21" target="96ZKBjVwSbG_w81MxDSZ-23">
          <mxGeometry width="50" height="50" relative="1" as="geometry">
            <mxPoint x="652" y="190" as="sourcePoint" />
            <mxPoint x="620" y="227" as="targetPoint" />
          </mxGeometry>
        </mxCell>
        <mxCell id="96ZKBjVwSbG_w81MxDSZ-25" value="x" style="ellipse;whiteSpace=wrap;html=1;" vertex="1" parent="1">
          <mxGeometry x="570" y="240" width="50" height="50" as="geometry" />
        </mxCell>
        <mxCell id="96ZKBjVwSbG_w81MxDSZ-26" value="" style="endArrow=none;html=1;rounded=0;exitX=0;exitY=1;exitDx=0;exitDy=0;entryX=0.5;entryY=0;entryDx=0;entryDy=0;endFill=0;" edge="1" parent="1" source="96ZKBjVwSbG_w81MxDSZ-23" target="96ZKBjVwSbG_w81MxDSZ-15">
          <mxGeometry width="50" height="50" relative="1" as="geometry">
            <mxPoint x="524" y="196" as="sourcePoint" />
            <mxPoint x="470" y="240" as="targetPoint" />
          </mxGeometry>
        </mxCell>
        <mxCell id="96ZKBjVwSbG_w81MxDSZ-27" value="" style="endArrow=none;html=1;rounded=0;exitX=1;exitY=1;exitDx=0;exitDy=0;entryX=0.5;entryY=0;entryDx=0;entryDy=0;endFill=0;" edge="1" parent="1" source="96ZKBjVwSbG_w81MxDSZ-23" target="96ZKBjVwSbG_w81MxDSZ-25">
          <mxGeometry width="50" height="50" relative="1" as="geometry">
            <mxPoint x="574" y="220" as="sourcePoint" />
            <mxPoint x="540" y="264" as="targetPoint" />
          </mxGeometry>
        </mxCell>
        <mxCell id="96ZKBjVwSbG_w81MxDSZ-28" value="w0" style="ellipse;whiteSpace=wrap;html=1;fillColor=#dae8fc;strokeColor=#6c8ebf;" vertex="1" parent="1">
          <mxGeometry x="630" y="330" width="50" height="50" as="geometry" />
        </mxCell>
        <mxCell id="96ZKBjVwSbG_w81MxDSZ-29" value="sin" style="ellipse;whiteSpace=wrap;html=1;fillColor=#dae8fc;strokeColor=#6c8ebf;" vertex="1" parent="1">
          <mxGeometry x="680" y="160" width="50" height="50" as="geometry" />
        </mxCell>
        <mxCell id="96ZKBjVwSbG_w81MxDSZ-30" value="/" style="ellipse;whiteSpace=wrap;html=1;fillColor=#dae8fc;strokeColor=#6c8ebf;" vertex="1" parent="1">
          <mxGeometry x="680" y="250" width="50" height="50" as="geometry" />
        </mxCell>
        <mxCell id="96ZKBjVwSbG_w81MxDSZ-31" value="" style="endArrow=none;html=1;rounded=0;exitX=0.5;exitY=1;exitDx=0;exitDy=0;entryX=0.5;entryY=0;entryDx=0;entryDy=0;endFill=0;fillColor=#fff2cc;strokeColor=light-dark(#000000, #6d5100);" edge="1" parent="1" source="96ZKBjVwSbG_w81MxDSZ-29" target="96ZKBjVwSbG_w81MxDSZ-30">
          <mxGeometry width="50" height="50" relative="1" as="geometry">
            <mxPoint x="802" y="280" as="sourcePoint" />
            <mxPoint x="770" y="317" as="targetPoint" />
          </mxGeometry>
        </mxCell>
        <mxCell id="96ZKBjVwSbG_w81MxDSZ-32" value="y" style="ellipse;whiteSpace=wrap;html=1;fillColor=#dae8fc;strokeColor=#6c8ebf;" vertex="1" parent="1">
          <mxGeometry x="720" y="330" width="50" height="50" as="geometry" />
        </mxCell>
        <mxCell id="96ZKBjVwSbG_w81MxDSZ-33" value="" style="endArrow=none;html=1;rounded=0;exitX=0;exitY=1;exitDx=0;exitDy=0;entryX=0.5;entryY=0;entryDx=0;entryDy=0;endFill=0;fillColor=#fff2cc;strokeColor=light-dark(#000000, #6d5100);" edge="1" parent="1" source="96ZKBjVwSbG_w81MxDSZ-30" target="96ZKBjVwSbG_w81MxDSZ-28">
          <mxGeometry width="50" height="50" relative="1" as="geometry">
            <mxPoint x="674" y="286" as="sourcePoint" />
            <mxPoint x="620" y="330" as="targetPoint" />
          </mxGeometry>
        </mxCell>
        <mxCell id="96ZKBjVwSbG_w81MxDSZ-34" value="" style="endArrow=none;html=1;rounded=0;exitX=1;exitY=1;exitDx=0;exitDy=0;entryX=0.5;entryY=0;entryDx=0;entryDy=0;endFill=0;fillColor=#fff2cc;strokeColor=light-dark(#000000, #6d5100);" edge="1" parent="1" source="96ZKBjVwSbG_w81MxDSZ-30" target="96ZKBjVwSbG_w81MxDSZ-32">
          <mxGeometry width="50" height="50" relative="1" as="geometry">
            <mxPoint x="724" y="310" as="sourcePoint" />
            <mxPoint x="690" y="354" as="targetPoint" />
          </mxGeometry>
        </mxCell>
      </root>
    </mxGraphModel>
  </diagram>
</mxfile>
